<?xml version="1.0" encoding="utf-8"?>
<!-- Generator: Adobe Illustrator 23.0.5, SVG Export Plug-In . SVG Version: 6.00 Build 0)  -->
<svg version="1.1" id="Camada_1" xmlns="http://www.w3.org/2000/svg" xmlns:xlink="http://www.w3.org/1999/xlink" x="0px" y="0px"
	 viewBox="0 0 465 441" style="enable-background:new 0 0 465 441;" xml:space="preserve">
<style type="text/css">
	.st0{fill:#AE58FF;}
	.st1{fill:#EBF4FC;}
	.st2{fill:#B5DCFF;}
	.st3{fill:#0B4C5B;}
	.st4{fill:#FFED0B;}
	.st5{fill:#FEFEFF;}
	.st6{fill:#C9F4F3;}
	.st7{fill:#A2D6D3;}
</style>
<g>
	<path class="st0" d="M316.3,111.1h-8v104.4c0,0-10.7,3.1-36-4.5c-17.1-5.1-29.8,1.1-36.3,5.6c-1.4,1-3,2.6-4.7,2.6h-0.1h-0.1
		c-1.7,0-3.3-1.6-4.7-2.6c-6.5-4.6-19.3-10.8-36.3-5.6c-25.3,7.6-36,4.5-36,4.5V111.1h-8c-2.1,0-3.9,1.7-3.9,3.9v108.9
		c0,2.1,1.7,3.9,3.9,3.9h69.6c2.1,0,4,1.1,4.8,3c1.9,4,6,6.8,10.7,6.8c4.7,0,8.8-2.8,10.7-6.8c0.9-1.9,2.8-3,4.8-3h69.6
		c2.1,0,3.9-1.7,3.9-3.9V115C320.2,112.9,318.4,111.1,316.3,111.1L316.3,111.1z"/>
	<path class="st1" d="M305.9,102.8c-5.2,0.4-16.2,0.3-33.6-5c-25.3-7.6-41.1,9.7-41.1,9.7l-2.8,3.6v104.3l2.8,3.7v0.1h0.1
		c1.7,0,3.3-0.5,4.7-1.5c6.5-4.6,19.3-10.8,36.3-5.6c25.3,7.6,37.1,4.5,37.1,4.5V106C309.4,104.1,307.8,102.6,305.9,102.8
		L305.9,102.8z"/>
	<path class="st2" d="M241.7,100.1c-6.8,3.3-10.5,7.4-10.5,7.4l-2.8,3.6v104.3l2.8,3.7v0.1h0.1c1.7,0,3.3-0.5,4.7-1.5
		c1.5-1.1,3.5-2.3,5.7-3.4V100.1z"/>
	<path class="st1" d="M156.4,102.8c5.2,0.4,16.2,0.3,33.6-5c25.3-7.6,41.1,9.7,41.1,9.7v111.8h-0.1c-1.7,0-3.3-0.5-4.7-1.5
		c-6.5-4.6-19.3-10.8-36.3-5.6c-25.3,7.6-37.1,4.5-37.1,4.5V106C153,104.1,154.6,102.6,156.4,102.8L156.4,102.8z"/>
	<path class="st2" d="M164.8,102.8c-3.6,0.2-6.4,0.2-8.4,0c-1.9-0.1-3.5,1.3-3.5,3.2v110.7c0,0,3.8,1,11.8,0.5V102.8z"/>
	<path class="st3" d="M316.4,108.6h-4.2v-2.5c0-3.4-2.9-6.1-6.4-5.9c-4,0.3-12.6,0.3-26.2-3.1c-1.4-0.4-2.9,0.5-3.3,1.9
		c-0.4,1.4,0.5,2.9,1.9,3.3c13.6,3.5,22.7,3.7,28,3.3c0.3,0,0.6,0.2,0.6,0.5v108.4c-10.2,1.1-23.8-1.8-33.6-4.8
		c-22-6.6-36.2,4.8-39.2,6.4V108.7c2.9-2.7,14.6-12.4,32-9.6c1.5,0.2,2.8-0.8,3.1-2.2c0.2-1.5-0.8-2.8-2.2-3.1
		c-18.3-2.9-30.9,6-35.5,10c-10.7-9.3-26-13.4-41.9-8.6c-17.1,5.2-27.8,5.3-32.6,4.9c-3.4-0.3-6.4,2.4-6.4,5.9v2.5h-4.2
		c-3.6,0-6.6,2.9-6.6,6.6V224c0,3.6,2.9,6.6,6.6,6.6h69.6c1,0,2,0.6,2.4,1.5c5.2,11,21,11.1,26.2,0c0.4-0.9,1.4-1.5,2.4-1.5h69.6
		c3.6,0,6.6-2.9,6.6-6.6v-50.9c0-1.5-1.2-2.7-2.7-2.7s-2.7,1.2-2.7,2.7V224c0,0.7-0.5,1.2-1.2,1.2h-69.6c-3.1,0-6,1.8-7.3,4.5
		c-3.3,6.9-13.2,7-16.5,0c-1.3-2.8-4.2-4.5-7.3-4.5h-69.6c-0.7,0-1.2-0.5-1.2-1.2V115.1c0-0.7,0.5-1.2,1.2-1.2h4.2v102.8
		c0,1.2,0.8,2.3,2,2.6c0.5,0.1,12.8,3.2,38.5-4.5c12.4-3.8,24.5-1.5,34,5.3c3.7,2.6,8.8,2.8,12.7,0c5.8-4.1,17.8-10.1,34-5.3
		c25.7,7.8,38,4.7,38.5,4.5c1.2-0.3,2-1.4,2-2.6V113.9h4.2c0.7,0,1.2,0.5,1.2,1.2v45.4c0,1.5,1.2,2.7,2.7,2.7s2.7-1.2,2.7-2.7v-45.4
		C322.9,111.5,320,108.6,316.4,108.6z M155.7,106.1c0-0.3,0.2-0.5,0.6-0.5c5.2,0.4,16.7,0.3,34.6-5.1c14.5-4.4,28.4-0.4,37.7,8.3
		v107.3c-1.5-0.8-16.6-13.2-39.2-6.4c-1.4,0.4-3,0.9-4.5,1.3c0,0,0,0-0.1,0c-8.6,2.3-20.2,4.4-29,3.5
		C155.7,207,155.7,108.1,155.7,106.1L155.7,106.1z"/>
	<g>
		<circle class="st4" cx="231.3" cy="15.2" r="13.4"/>
		<path class="st4" d="M231.3,63.3l8,32.1h13.4l-8-37.4V39.2h5.3c2.4,0,4.6-0.5,6.6-1.5c-0.3-0.2-0.6-0.4-0.9-0.6
			c0.3,0.2,0.6,0.4,0.9,0.6c5.5-2.5,9.4-8.1,9.4-14.6V1.8h-10.7v21.4c0,3-2.4,5.3-5.3,5.3h-18.7h-18.7c-3,0-5.3-2.4-5.3-5.3V1.8
			h-10.7v21.4c0,8.9,7.2,16,16,16h5.3v18.7l-8,37.4h13.4L231.3,63.3z"/>
	</g>
	<path class="st2" d="M258,128.1l-13.4-13.4l-13.4,13.4l-13.4-13.4l-13.4,13.4l-13-13l-34.8,42.4h149L271,115.1L258,128.1z
		 M217.9,146.8h5.3H217.9z M228.6,146.8h5.3H228.6z M239.3,146.8h5.3H239.3z"/>
	<polygon class="st5" points="217.9,114.7 231.3,128.1 244.6,114.7 258,128.1 271,115.1 255.3,96 252.6,96 239.3,96 223.2,96 
		209.9,96 207.2,96 191.5,115.1 204.5,128.1 	"/>
	<path class="st6" d="M154.1,70h44.8c0.1-0.9,0.2-1.8,0.2-2.7c0-8.9-7.2-16-16-16c-5.5,0-10.3,2.7-13.2,6.9c-1.6-1-3.5-1.6-5.5-1.6
		c-5.9,0-10.7,4.8-10.7,10.7C153.7,68.3,153.9,69.2,154.1,70z"/>
	<path class="st0" d="M250,82.6c8.2,1.5,14.7,1.9,21-4.2c4.1-4,8.5-13.3,14-15.2c-4.4,1.5-9.3-0.5-12.6-3.8
		c-3.3-3.2-5.4-7.4-7.7-11.4c-2.3-4-5-8-9-10.3l-3.1,2h-8v18.7L250,82.6z"/>
	<polygon class="st7" points="231.3,157.5 305.7,157.5 271,115.1 258,128.1 244.6,114.7 231.3,128.1 	"/>
	<path class="st3" d="M257.4,94.3c-0.5-0.6-1.3-1-2.1-1h-0.5l-1.6-7.5c1.7,0.2,3.4,0.4,5,0.4c5,0,9.9-1.4,14.6-5.9
		c1.6-1.6,3.2-3.8,4.9-6.1c2.6-3.5,5.4-7.6,8.2-8.5c0,0,0,0,0,0c1.4-0.5,2.1-2,1.7-3.4c-0.5-1.4-2-2.2-3.4-1.7c0,0,0,0,0,0
		c-3.6,1.2-7.6-0.9-9.9-3.1c-2.5-2.4-4.3-5.6-6.2-9l-1.1-1.9c-1.6-2.7-3.4-5.6-5.8-8c4.5-3.4,7.5-8.8,7.5-14.9V2.4
		c0-1.5-1.2-2.7-2.7-2.7h-10.7c-1.5,0-2.7,1.2-2.7,2.7v21.4c0,1.5-1.2,2.7-2.7,2.7h-6.8c2.6-2.8,4.1-6.6,4.1-10.7
		c0-8.8-7.2-16-16-16c-8.8,0-16,7.2-16,16c0,4.1,1.6,7.9,4.1,10.7h-6.8c-1.5,0-2.7-1.2-2.7-2.7V2.4c0-1.5-1.2-2.7-2.7-2.7h-10.7
		c-1.5,0-2.7,1.2-2.7,2.7v21.4c0,10.3,8.4,18.7,18.7,18.7h2.7v15.8l-7.5,35h-0.5c-0.8,0-1.6,0.4-2.1,1l-49.6,60.5h-4.5v5.3h5.7h149
		h5.7v-5.3H307L257.4,94.3z M262.4,49.4l1,1.8c2,3.5,4.1,7.2,7.1,10.2c1.8,1.8,4.2,3.4,7,4.3c-1.5,1.7-2.8,3.6-4.2,5.5
		c-1.5,2.1-2.9,4.1-4.2,5.3c-4.8,4.6-9.7,5-17.1,3.7l-4.7-22V42.5h2.7c2.2,0,4.3-0.4,6.3-1.1C258.8,43.5,260.7,46.5,262.4,49.4z
		 M220.6,15.8c0-5.9,4.8-10.7,10.7-10.7c5.9,0,10.7,4.8,10.7,10.7s-4.8,10.7-10.7,10.7C225.4,26.5,220.6,21.7,220.6,15.8z
		 M220.5,59.1c0-0.2,0.1-0.4,0.1-0.6V39.8c0-1.5-1.2-2.7-2.7-2.7h-5.3c-7.4,0-13.4-6-13.4-13.4V5.1h5.3v18.7c0,4.4,3.6,8,8,8H250
		c4.4,0,8-3.6,8-8V5.1h5.3v18.7c0,7.4-6,13.4-13.4,13.4h-5.3c-1.5,0-2.7,1.2-2.7,2.7v18.7c0,0.2,0,0.4,0.1,0.6l7.3,34.2h-8
		l-7.5-30.1c-0.3-1.2-1.4-2-2.6-2s-2.3,0.8-2.6,2l-7.5,30.1h-8L220.5,59.1z M235.9,93.3h-9.2l4.6-18.4L235.9,93.3z M208.5,98.7h1.4
		h13.4h16h13.4h1.4l13.3,16.2l-9.4,9.4l-11.5-11.5c-1-1-2.7-1-3.8,0l-11.5,11.5l-11.5-11.5c-1-1-2.7-1-3.8,0l-11.5,11.5l-9.4-9.4
		L208.5,98.7z M162.4,154.8l29.3-35.7l10.9,10.9c1,1,2.7,1,3.8,0l11.5-11.5l11.5,11.5c1,1,2.7,1,3.8,0l11.5-11.5l11.5,11.5
		c0.5,0.5,1.2,0.8,1.9,0.8s1.4-0.3,1.9-0.8l10.9-10.9l29.3,35.7H162.4z"/>
	<path class="st3" d="M154.1,72.7h44.8c1.3,0,2.4-0.9,2.6-2.2c0.2-1.1,0.3-2.1,0.3-3.1c0-10.3-8.4-18.7-18.7-18.7
		c-5.4,0-10.4,2.3-14,6.3c-1.5-0.6-3.1-0.9-4.8-0.9c-7.4,0-13.4,6-13.4,13.4c0,1.1,0.2,2.1,0.5,3.3
		C151.8,71.9,152.9,72.7,154.1,72.7z M164.4,59.3c1.4,0,2.8,0.4,4.1,1.2c1.2,0.7,2.8,0.4,3.6-0.8c2.5-3.6,6.6-5.8,11-5.8
		c7.4,0,13.4,6,13.4,13.4h-40.1C156.4,62.9,160,59.3,164.4,59.3z"/>
</g>
<g>
	<path class="st3" d="M53.7,327.1h-25l-4.9,14h-24l29.8-79h23.1l29.9,79h-24L53.7,327.1z M47.3,308.8l-6.1-17.4l-6.1,17.4H47.3z"/>
	<path class="st3" d="M115.9,341.1H97.7l-21.9-54.1h20.9l10,30.9l10.2-30.9h20.9L115.9,341.1z"/>
	<path class="st3" d="M155.5,320.7c1.8,4.1,5.4,6.5,9.3,7.1c7.6,1.1,13.3-2.5,14.8-4.3l7.3,10.3c-6.9,6.3-13,9-23.1,9
		c-14.8,0-27.3-12.9-27.3-28.8c0-15.9,12.5-28.9,27.3-28.9c14.9,0,26.3,11.7,26.3,27.6c0,2.7-0.1,5.3-0.6,7.9H155.5z M154.2,309.2
		h19.4c-1-5.3-5-7.9-9.9-7.9C159.2,301.3,155.6,304.2,154.2,309.2z"/>
	<path class="st3" d="M251.6,306.3v34.7h-19.1l0.1-32.4c0-6.2-4.7-8.6-8.1-8.6s-8.8,2.1-8.9,8.2v32.7h-19.1v-54.1h19.1v5.2
		c3.3-3.7,9.4-7,15.3-7C244.7,285.1,251.6,293,251.6,306.3z"/>
	<path class="st3" d="M300.8,339.1c-2.1,1.4-8.6,3.7-16.5,3.7c-17.5,0-19.7-13.3-19.7-28.2c0-2,0-6,0-10.6H257v-17h7.6
		c0-6.5,0-11.6,0-11.6l19.1-2.4c0,0,0,6.3,0,14h14v17h-14c0,5.2,0,9.1,0,10.2c0,10.3,4.9,13.3,13,9.4L300.8,339.1z"/>
	<path class="st3" d="M303.9,321.7v-34.7h19v32.3c0,6.2,4.7,8.6,8,8.6c3.5,0,8.8-2.1,9-8.2v-32.6h19v54.1h-19v-5.3
		c-3.4,3.8-9.5,7-15.3,7C310.8,342.8,303.9,334.9,303.9,321.7z"/>
	<path class="st3" d="M413.2,286.9l-4.5,19.9c-2.7-1.1-5.8-2.8-11.1-2.5c-3.8,0.2-9.8,2.5-9.8,11.2c0,2.8,0,25.6,0,25.6h-19.1v-54.1
		h19.1v5.2c1.7-2.4,8.5-7,15.6-7C407.5,285.1,411.9,286.4,413.2,286.9z"/>
	<path class="st3" d="M465.5,306.3c0,16,0,34.7,0,34.7h-19v-5.3c-3.4,4.5-8.9,7-15.9,7c-3.2,0-15.9-2-16.4-15.9
		c-0.3-11.7,7.6-17,15.5-18.4c5.1-0.9,13-1.4,16.8-1.5c0-2.3-1.2-7.1-7.9-7.1c-7.3,0-14,3-16.6,4.4l-5.2-12.3
		c4.1-2.8,13.5-6.9,24.1-6.9C453,285.1,465.5,289.6,465.5,306.3z M446.5,322.8c0-1.7,0-5.9,0-5.9s-7.6-0.3-10.8,2
		c-4.1,2.8-2.7,9.6,3.8,9.6C444.9,328.6,446.5,325.1,446.5,322.8z"/>
	<path class="st3" d="M74.9,421.5v18.3H20v-79h21.7v60.7H74.9z"/>
	<path class="st3" d="M100.4,385.7v54.1h-19v-54.1H100.4z M81.6,370c0-5.2,4.2-9.4,9.4-9.4c5.2,0,9.4,4.2,9.4,9.4s-4.2,9.4-9.4,9.4
		C85.7,379.3,81.6,375.2,81.6,370z"/>
	<path class="st3" d="M151.8,437.8c-2.1,1.4-8.6,3.7-16.5,3.7c-17.5,0-19.7-13.3-19.7-28.2c0-2,0-6,0-10.6h-7.6v-17h7.6
		c0-6.5,0-11.6,0-11.6l19.1-2.4c0,0,0,6.3,0,14h14v17h-14c0,5.2,0,9.1,0,10.2c0,10.3,4.9,13.3,13,9.4L151.8,437.8z"/>
	<path class="st3" d="M171.8,419.4c1.8,4.1,5.4,6.5,9.3,7.1c7.6,1.1,13.3-2.5,14.8-4.3l7.3,10.3c-6.9,6.3-13,9-23.1,9
		c-14.8,0-27.3-12.9-27.3-28.8c0-15.9,12.5-28.9,27.3-28.9c14.9,0,26.3,11.7,26.3,27.6c0,2.7-0.1,5.3-0.6,7.9H171.8z M170.6,407.9
		H190c-1-5.3-5-7.9-9.9-7.9C175.5,400,171.9,402.9,170.6,407.9z"/>
	<path class="st3" d="M256.2,385.7l-4.5,19.9c-2.7-1.1-5.8-2.8-11.1-2.5c-3.8,0.2-9.8,2.5-9.8,11.2c0,2.8,0,25.6,0,25.6h-19.1v-54.1
		h19.1v5.2c1.7-2.4,8.5-7,15.6-7C250.4,383.8,254.8,385.1,256.2,385.7z"/>
	<path class="st3" d="M308.4,405.1c0,16,0,34.7,0,34.7h-19v-5.3c-3.4,4.5-8.9,7-15.9,7c-3.2,0-15.9-2-16.4-15.9
		c-0.3-11.7,7.6-17,15.5-18.4c5.1-0.9,13-1.4,16.8-1.5c0-2.3-1.2-7.1-7.9-7.1c-7.3,0-14,3-16.6,4.4l-5.2-12.3
		c4.1-2.8,13.5-6.9,24.1-6.9C296,383.8,308.4,388.4,308.4,405.1z M291.3,374.3h-15.6l6.7-20.3h21.1L291.3,374.3z M289.5,421.5
		c0-1.7,0-5.9,0-5.9s-7.6-0.3-10.8,2c-4.1,2.8-2.7,9.6,3.8,9.6C287.9,427.3,289.5,423.8,289.5,421.5z"/>
	<path class="st3" d="M362.8,385.7l-4.5,19.9c-2.7-1.1-5.8-2.8-11.1-2.5c-3.8,0.2-9.8,2.5-9.8,11.2c0,2.8,0,25.6,0,25.6h-19.1v-54.1
		h19.1v5.2c1.7-2.4,8.5-7,15.6-7C357,383.8,361.4,385.1,362.8,385.7z"/>
	<path class="st3" d="M387.2,385.7v54.1h-19v-54.1H387.2z M368.3,370c0-5.2,4.2-9.4,9.4-9.4c5.2,0,9.4,4.2,9.4,9.4s-4.2,9.4-9.4,9.4
		C372.5,379.3,368.3,375.2,368.3,370z"/>
	<path class="st3" d="M445,405.1c0,16,0,34.7,0,34.7h-19v-5.3c-3.4,4.5-8.9,7-15.9,7c-3.2,0-15.9-2-16.4-15.9
		c-0.3-11.7,7.6-17,15.5-18.4c5.1-0.9,13-1.4,16.8-1.5c0-2.3-1.2-7.1-7.9-7.1c-7.3,0-14,3-16.6,4.4l-5.2-12.3
		c4.1-2.8,13.5-6.9,24.1-6.9C432.6,383.8,445,388.4,445,405.1z M426.1,421.5c0-1.7,0-5.9,0-5.9s-7.6-0.3-10.8,2
		c-4.1,2.8-2.7,9.6,3.8,9.6C424.5,427.3,426.1,423.8,426.1,421.5z"/>
</g>
</svg>
